<svg width="189" height="157" viewBox="0 0 189 157" fill="none" xmlns="http://www.w3.org/2000/svg">
    <path fill-rule="evenodd" clip-rule="evenodd" d="M33.1376 27.0603H54.4282C65.1985 16.8929 79.1954 10.7497 94.5001 10.7497C109.805 10.7497 123.802 16.8929 134.572 27.0603H157.019V28.2173C157.019 32.5456 158.773 36.4648 161.61 39.3013C164.446 42.137 168.365 43.8921 172.694 43.8921H173.851V49.0837V55.6451V77.279H171.537V55.6451V49.0837V46.1688C167.031 45.883 162.975 43.9374 159.974 40.9371C156.973 37.9366 155.028 33.8804 154.742 29.3741H34.2575C33.9715 33.8804 32.0261 37.9366 29.0256 40.9371C26.0253 43.9374 21.9689 45.883 17.4623 46.1688V48.4823V55.6451V77.279H15.149V55.6451V48.4823V43.8921H16.3058C20.6346 43.8921 24.5538 42.137 27.3898 39.3013C30.2257 36.4653 31.9808 32.5456 31.9808 28.2173V27.0603H33.1376ZM57.8668 27.0603H131.133C121.051 18.2945 108.327 13.0631 94.5001 13.0631C80.673 13.0631 67.9495 18.2945 57.8668 27.0603ZM134.572 129.939C123.802 140.107 109.805 146.25 94.5001 146.25C79.1953 146.25 65.1984 140.107 54.428 129.939H31.9808V128.783C31.9808 124.454 30.2257 120.534 27.3898 117.699C24.5533 114.862 20.6346 113.108 16.3058 113.108H15.149V110.831V107.963H17.4623V110.831C21.9689 111.117 26.0253 113.062 29.0256 116.063C32.0261 119.063 33.9715 123.12 34.2575 127.626H154.742C155.028 123.12 156.973 119.063 159.974 116.063C162.975 113.062 167.031 111.117 171.537 110.831V107.963H173.851V110.831V113.108H172.694C168.365 113.108 164.446 114.862 161.61 117.699C158.773 120.535 157.019 124.454 157.019 128.783V129.939H134.572ZM57.8666 129.939C67.9493 138.706 80.6729 143.937 94.5001 143.937C108.327 143.937 121.051 138.706 131.134 129.939H57.8666Z" fill="#4E4138"/>
    <path fill-rule="evenodd" clip-rule="evenodd" d="M23.8811 104.035C22.6082 104.035 21.4336 103.801 20.3574 103.333C19.2811 102.865 18.3593 102.196 17.5918 101.325C16.8243 100.455 16.2254 99.3975 15.7949 98.1528C15.3643 96.9081 15.1491 95.4996 15.1491 93.9272C15.1491 92.2801 15.3878 90.8248 15.8652 89.5613C16.3424 88.2979 16.9975 87.2356 17.8304 86.3746C18.6635 85.5136 19.6321 84.8631 20.7364 84.4233C21.8408 83.9834 23.0199 83.7635 24.2741 83.7635C25.5656 83.7635 26.5905 83.9741 27.3485 84.3998C28.1066 84.8257 28.6073 85.2609 28.8507 85.7008H29.0191V84.1004H32.276V90.3335H29.0191V89.0886C29.0191 88.1106 28.7196 87.3292 28.1206 86.7442C27.5217 86.1593 26.5484 85.8692 25.2007 85.8692C23.4973 85.8692 22.2292 86.3044 21.3963 87.1794C20.5633 88.0499 20.1468 89.4022 20.1468 91.2412V96.6132C20.1468 98.3212 20.5164 99.6082 21.2559 100.479C21.9952 101.354 23.0388 101.789 24.3865 101.789C25.6966 101.789 26.6607 101.457 27.2783 100.787C27.8961 100.118 28.2049 99.2899 28.2049 98.2932V95.6399H25.3971V93.7868H34.1291V95.6399H32.6971V103.698H31.1529L29.4402 100.886H29.2437C29.1501 101.204 28.9536 101.545 28.654 101.91C28.3546 102.275 27.9662 102.617 27.4889 102.926C27.0116 103.235 26.4689 103.497 25.8604 103.712C25.2522 103.927 24.5923 104.035 23.8811 104.035ZM36.5999 101.845H38.5652V85.9534H36.5999V84.1004H45.0791V85.9534H43.1136V101.845H45.0791V103.698H36.5999V101.845ZM47.3813 101.845H49.3466V85.9534H47.3813V84.1004H54.9621L62.992 98.0545H63.1605V85.9534H61.195V84.1004H67.2878V85.9534H65.3504V103.698H61.2513L51.7052 87.3854H51.5368V101.845H53.502V103.698H47.3813V101.845ZM69.5901 101.845H71.5554V85.9534H69.5901V84.1004H78.0693V85.9534H76.1039V101.845H78.0693V103.698H69.5901V101.845ZM84.3864 101.845H86.6045V95.8646L81.3262 85.9534H79.9222V84.1004H88.1769V85.9534H86.2115L89.9738 93.3096H90.0861L93.9887 85.9534H92.0233V84.1004H97.8353V85.9534H96.4034L91.153 95.2468V101.845H93.371V103.698H84.3864V101.845ZM97.386 101.845H98.7898L104.883 84.1004H108.757L114.85 101.845H116.254V103.698H108.027V101.845H110.273L108.926 97.7175H102.524L101.176 101.845H103.423V103.698H97.386V101.845ZM103.086 95.7803H108.42L105.781 87.5258H105.669L103.086 95.7803ZM119.96 101.845H122.627V86.1219H118.977V89.3227H115.72V84.1004H134.083V89.3227H130.826V86.1219H127.176V101.845H129.843V103.698H119.96V101.845ZM144.892 101.929C145.472 101.929 146.015 101.836 146.521 101.648C147.026 101.461 147.47 101.176 147.854 100.783C148.238 100.39 148.542 99.8889 148.767 99.2712C148.991 98.6534 149.104 97.9188 149.104 97.0626V90.7359C149.104 89.8796 148.991 89.1449 148.767 88.5272C148.542 87.9094 148.238 87.4087 147.854 87.0156C147.47 86.6226 147.026 86.3372 146.521 86.1499C146.015 85.9628 145.472 85.8692 144.892 85.8692C144.312 85.8692 143.769 85.9628 143.264 86.1499C142.758 86.3372 142.314 86.6226 141.93 87.0156C141.546 87.4087 141.242 87.9094 141.018 88.5272C140.793 89.1449 140.681 89.8796 140.681 90.7359V97.0626C140.681 97.9188 140.793 98.6534 141.018 99.2712C141.242 99.8889 141.546 100.39 141.93 100.783C142.314 101.176 142.758 101.461 143.264 101.648C143.769 101.836 144.312 101.929 144.892 101.929ZM144.892 104.035C143.582 104.035 142.365 103.81 141.242 103.361C140.119 102.912 139.146 102.261 138.322 101.41C137.498 100.558 136.853 99.5005 136.385 98.237C135.917 96.9735 135.683 95.5276 135.683 93.8992C135.683 92.2707 135.917 90.8248 136.385 89.5613C136.853 88.2979 137.498 87.2403 138.322 86.3887C139.146 85.5369 140.119 84.8865 141.242 84.4374C142.365 83.988 143.582 83.7635 144.892 83.7635C146.202 83.7635 147.419 83.988 148.542 84.4374C149.665 84.8865 150.638 85.5369 151.462 86.3887C152.286 87.2403 152.931 88.2979 153.399 89.5613C153.867 90.8248 154.101 92.2707 154.101 93.8992C154.101 95.5276 153.867 96.9735 153.399 98.237C152.931 99.5005 152.286 100.558 151.462 101.41C150.638 102.261 149.665 102.912 148.542 103.361C147.419 103.81 146.202 104.035 144.892 104.035ZM156.656 85.9534H155.252V84.1004H163.507V85.9534H161.261L163.816 94.2642L165.472 100.273H165.641L167.41 94.2642L170.049 85.9534H167.803V84.1004H173.839V85.9534H172.435L166.483 103.698H162.609L156.656 85.9534Z" fill="#4E4138"/>
    <path fill-rule="evenodd" clip-rule="evenodd" d="M91.3164 11.9983C92.0745 11.955 92.8377 11.9314 93.6031 11.9192L92.3363 28.2172L91.3164 11.9983Z" fill="#4E4138"/>
    <path fill-rule="evenodd" clip-rule="evenodd" d="M60.1573 23.7093C60.4943 23.4523 60.834 23.1983 61.1763 22.9483L60.5743 28.2172L60.1573 23.7093Z" fill="#4E4138"/>
    <path fill-rule="evenodd" clip-rule="evenodd" d="M86.8008 12.442C87.564 12.3349 88.3334 12.2488 89.1054 12.1736L87.8219 28.2171L86.8008 12.442Z" fill="#4E4138"/>
    <path fill-rule="evenodd" clip-rule="evenodd" d="M82.3104 13.2625C83.061 13.0929 83.8181 12.9438 84.5783 12.8052L83.308 28.2171L82.3104 13.2625Z" fill="#4E4138"/>
    <path fill-rule="evenodd" clip-rule="evenodd" d="M77.848 14.4694C78.565 14.2434 79.2884 14.0349 80.0158 13.8378L78.7936 28.2171L77.848 14.4694Z" fill="#4E4138"/>
    <path fill-rule="evenodd" clip-rule="evenodd" d="M73.4176 16.0768C74.0773 15.8062 74.7426 15.547 75.4132 15.3013L74.2797 28.2171L73.4176 16.0768Z" fill="#4E4138"/>
    <path fill-rule="evenodd" clip-rule="evenodd" d="M69.0234 18.1043C69.5978 17.8092 70.1762 17.5225 70.7602 17.2471L69.7653 28.2172L69.0234 18.1043Z" fill="#4E4138"/>
    <path fill-rule="evenodd" clip-rule="evenodd" d="M64.6717 20.5781C65.1259 20.2931 65.5844 20.0155 66.0461 19.7431L65.2513 28.2172L64.6717 20.5781Z" fill="#4E4138"/>
    <path fill-rule="evenodd" clip-rule="evenodd" d="M95.3972 11.9192C96.1626 11.9314 96.9259 11.955 97.6838 11.9983L96.664 28.2172L95.3972 11.9192Z" fill="#4E4138"/>
    <path fill-rule="evenodd" clip-rule="evenodd" d="M127.824 22.9483C128.166 23.1983 128.506 23.4523 128.843 23.7093L128.426 28.2172L127.824 22.9483Z" fill="#4E4138"/>
    <path fill-rule="evenodd" clip-rule="evenodd" d="M99.895 12.1736C100.667 12.2488 101.436 12.3349 102.2 12.442L101.178 28.2171L99.895 12.1736Z" fill="#4E4138"/>
    <path fill-rule="evenodd" clip-rule="evenodd" d="M104.422 12.8052C105.182 12.9438 105.939 13.0929 106.69 13.2625L105.692 28.2171L104.422 12.8052Z" fill="#4E4138"/>
    <path fill-rule="evenodd" clip-rule="evenodd" d="M108.984 13.8378C109.712 14.0349 110.435 14.2434 111.152 14.4694L110.207 28.2171L108.984 13.8378Z" fill="#4E4138"/>
    <path fill-rule="evenodd" clip-rule="evenodd" d="M113.587 15.3013C114.258 15.547 114.923 15.8062 115.583 16.0768L114.721 28.2171L113.587 15.3013Z" fill="#4E4138"/>
    <path fill-rule="evenodd" clip-rule="evenodd" d="M118.24 17.2471C118.824 17.5225 119.402 17.8092 119.977 18.1043L119.235 28.2172L118.24 17.2471Z" fill="#4E4138"/>
    <path fill-rule="evenodd" clip-rule="evenodd" d="M122.954 19.7431C123.416 20.0155 123.874 20.2931 124.329 20.5781L123.749 28.2172L122.954 19.7431Z" fill="#4E4138"/>
    <path fill-rule="evenodd" clip-rule="evenodd" d="M91.3164 145.002C92.0745 145.045 92.8377 145.068 93.6031 145.081L92.3363 128.783L91.3164 145.002Z" fill="#4E4138"/>
    <path fill-rule="evenodd" clip-rule="evenodd" d="M60.1573 133.291C60.4943 133.548 60.834 133.802 61.1763 134.052L60.5743 128.783L60.1573 133.291Z" fill="#4E4138"/>
    <path fill-rule="evenodd" clip-rule="evenodd" d="M86.8008 144.558C87.564 144.665 88.3334 144.751 89.1054 144.826L87.8219 128.783L86.8008 144.558Z" fill="#4E4138"/>
    <path fill-rule="evenodd" clip-rule="evenodd" d="M82.3104 143.737C83.061 143.907 83.8181 144.056 84.5783 144.195L83.308 128.783L82.3104 143.737Z" fill="#4E4138"/>
    <path fill-rule="evenodd" clip-rule="evenodd" d="M77.848 142.53C78.565 142.756 79.2884 142.965 80.0158 143.162L78.7936 128.783L77.848 142.53Z" fill="#4E4138"/>
    <path fill-rule="evenodd" clip-rule="evenodd" d="M73.4176 140.923C74.0773 141.194 74.7426 141.453 75.4132 141.699L74.2797 128.783L73.4176 140.923Z" fill="#4E4138"/>
    <path fill-rule="evenodd" clip-rule="evenodd" d="M69.0234 138.896C69.5978 139.191 70.1762 139.477 70.7602 139.753L69.7653 128.783L69.0234 138.896Z" fill="#4E4138"/>
    <path fill-rule="evenodd" clip-rule="evenodd" d="M64.6717 136.422C65.1259 136.707 65.5844 136.984 66.0461 137.257L65.2513 128.783L64.6717 136.422Z" fill="#4E4138"/>
    <path fill-rule="evenodd" clip-rule="evenodd" d="M95.3972 145.081C96.1626 145.068 96.9259 145.045 97.6838 145.002L96.664 128.783L95.3972 145.081Z" fill="#4E4138"/>
    <path fill-rule="evenodd" clip-rule="evenodd" d="M127.824 134.052C128.166 133.802 128.506 133.548 128.843 133.291L128.426 128.783L127.824 134.052Z" fill="#4E4138"/>
    <path fill-rule="evenodd" clip-rule="evenodd" d="M99.895 144.826C100.667 144.751 101.436 144.665 102.2 144.558L101.178 128.783L99.895 144.826Z" fill="#4E4138"/>
    <path fill-rule="evenodd" clip-rule="evenodd" d="M104.422 144.195C105.182 144.056 105.939 143.907 106.69 143.737L105.692 128.783L104.422 144.195Z" fill="#4E4138"/>
    <path fill-rule="evenodd" clip-rule="evenodd" d="M108.984 143.162C109.712 142.965 110.435 142.756 111.152 142.53L110.207 128.783L108.984 143.162Z" fill="#4E4138"/>
    <path fill-rule="evenodd" clip-rule="evenodd" d="M113.587 141.699C114.258 141.453 114.923 141.194 115.583 140.923L114.721 128.783L113.587 141.699Z" fill="#4E4138"/>
    <path fill-rule="evenodd" clip-rule="evenodd" d="M118.24 139.753C118.824 139.477 119.402 139.191 119.977 138.896L119.235 128.783L118.24 139.753Z" fill="#4E4138"/>
    <path fill-rule="evenodd" clip-rule="evenodd" d="M122.954 137.257C123.416 136.984 123.874 136.707 124.329 136.422L123.749 128.783L122.954 137.257Z" fill="#4E4138"/>
    <path fill-rule="evenodd" clip-rule="evenodd" d="M110.104 70.5602C109.198 71.867 107.653 72.8569 107.653 72.8569H104.947V72.8569V72.8569H102.242C102.242 72.8569 100.697 71.867 99.7911 70.5602C99.6133 70.3036 99.4628 70.0196 99.3406 69.7181V69.7183C97.9321 69.3424 97.8147 67.7283 97.8241 66.4835C97.8326 65.3394 97.594 65.0014 96.5455 64.8571C96.4359 64.3768 96.3894 64.0278 96.8474 63.6373C98.1489 63.6373 99.138 64.0641 99.5581 65.3374C99.9226 64.7519 100.455 64.3092 101.166 64.1257V63.2454H101.348L97.861 57.567C97.7034 57.3104 97.6974 57.0108 97.8444 56.748C97.9914 56.4852 98.2498 56.3337 98.5511 56.3337C102.365 56.3337 106.18 56.3337 109.994 56.3337C110.265 56.3337 110.497 56.4538 110.654 56.6742C110.811 56.8947 110.848 57.1539 110.759 57.4093L108.729 63.2454V64.1257C111.198 64.763 111.518 68.52 110.104 70.5602ZM102.04 63.2454H102.513H102.895C102.585 62.2706 102.927 61.9118 104.314 61.6569C104.296 61.5967 104.286 61.5329 104.286 61.4667C104.286 61.1015 104.582 60.8055 104.947 60.8055C105.313 60.8055 105.609 61.1015 105.609 61.4667C105.609 61.5329 105.599 61.5967 105.581 61.6569C106.94 61.9069 107.164 62.1866 106.938 63.2454H107.38H108.037L108.838 58.9509C108.879 58.7283 108.825 58.5198 108.68 58.3456C108.535 58.1714 108.34 58.0799 108.114 58.0799H100.883C100.626 58.0799 100.406 58.1994 100.266 58.4144C100.126 58.6295 100.106 58.8796 100.21 59.114L102.04 63.2454ZM105.323 39.7256C105.307 39.5078 105.145 39.2413 105.163 38.6843C105.194 37.6953 105.895 37.2053 106.069 35.8864C106.21 34.825 105.848 33.8141 105.235 33.0475C105.096 32.8733 104.794 32.5353 104.617 32.4251C104.67 32.5442 104.753 32.6799 104.817 32.8048C106.424 35.913 104.835 36.6105 104.757 37.9134C104.735 38.2758 104.829 38.6188 104.941 38.9191C104.996 39.0672 105.056 39.202 105.121 39.3414C105.186 39.4775 105.265 39.6007 105.323 39.7256ZM106.006 39.6688C106.034 39.3953 105.964 39.2523 106.057 38.7897C106.341 37.3787 107.621 37.0938 108.151 37.6141C108.568 38.023 108.402 38.7552 107.786 38.6394C107.44 38.5744 107.387 38.2782 107.314 38.1808C107.134 38.6287 107.368 39.039 107.692 39.1805C108.078 39.3485 108.509 39.2179 108.798 38.907C109.278 38.3916 109.096 37.3679 108.29 36.9304C107.535 36.5201 106.694 36.7491 106.148 37.3836C105.646 37.9664 105.58 38.9359 106.006 39.6688ZM106.239 36.6499C106.562 36.4777 106.933 36.1079 107.126 35.7771C107.627 34.9189 107.171 33.8154 106.991 32.8656C106.841 32.0728 106.902 31.9639 106.922 31.2411C106.76 31.4646 106.572 32.1822 106.534 32.5223C106.397 33.727 106.936 34.6221 106.806 35.5148C106.749 35.906 106.569 36.2324 106.336 36.5225C106.294 36.5754 106.266 36.5908 106.239 36.6499ZM105.661 42.131C106.196 42.131 106.784 42.0551 107.231 41.8676C107.4 41.7966 107.702 41.6277 107.593 41.3796C107.501 41.1696 107.254 41.1416 107.038 41.0195C107.53 41.0415 108.746 41.4576 108.047 41.926C107.3 42.4265 105.338 42.4139 104.398 42.0857L104.08 41.9383C104.02 41.9023 104.035 41.9157 104 41.8729C104.706 42.0658 104.848 42.131 105.661 42.131ZM97.688 40.3805C99.0077 40.5001 100.099 41.0728 100.963 41.5576C102.113 42.2034 102.872 42.8635 103.241 43.5306L103.497 43.9936H103.497C103.502 43.3647 103.464 42.965 103.261 42.3093C103.175 42.03 102.986 41.7031 103.153 41.4243C103.394 41.022 104.152 40.8154 104.766 40.726C105.874 40.5649 108.062 40.6424 108.549 41.4135C108.727 41.6947 108.54 42.0187 108.454 42.2939C108.114 43.3766 108.062 44.1569 108.401 45.2346C108.631 45.9673 109.125 46.8399 109.431 47.665C109.483 47.8056 109.532 47.9596 109.572 48.1064C109.684 48.5194 109.773 49.0575 109.513 49.4362C109.279 49.7775 108.814 50.0292 108.418 50.2065C107.311 50.7018 105.284 50.7423 104.071 50.458C103.697 50.3703 103.352 50.2549 103.046 50.0855C102.375 49.7152 101.857 49.4159 102.078 48.3569C102.235 47.6003 102.575 46.9678 102.864 46.3246C102.968 46.0918 103.056 45.8917 103.129 45.7152C102.947 45.0822 102.686 44.527 102.322 44.1713C101.414 43.2842 99.9373 42.8443 97.8933 42.8443C97.4588 42.8443 94.9066 42.9535 94.5096 42.9909C92.2143 43.2067 92.0621 40.7328 94.1641 40.3294C95.4084 40.0906 97.1001 40.327 97.688 40.3805ZM82.1675 45.2079C79.4199 48.6987 77.7535 53.7374 78.104 58.3378C78.6353 65.3184 83.7902 72.409 90.798 73.53C92.9033 73.8671 94.6266 73.5303 95.6133 72.5798C98.5249 69.7751 95.3039 60.2193 94.1803 57.0356C93.5198 55.1637 92.6733 53.4787 92.1319 51.7322C91.2777 48.978 90.1629 44.9394 92.0122 42.2531C92.9132 40.9449 92.1446 40.4839 91.4855 40.4296C88.4359 40.1794 83.9813 42.9034 82.1675 45.2079ZM93.2947 58.5898C91.5968 57.5912 89.9716 56.4676 88.4577 54.2833C89.4728 56.2851 91.3075 58.2074 93.5432 59.4701C93.9843 61.0338 94.4233 62.6052 94.8008 64.1884C94.8481 64.387 94.8908 64.5871 94.9286 64.7879C92.1255 63.4896 89.3707 61.5712 87.0902 58.8278C88.5318 61.4196 91.8847 64.0757 95.0543 65.5722C95.219 66.8295 95.2122 68.0838 95.0735 69.1994C95.0269 69.1695 94.9726 69.1413 94.91 69.1172C92.1613 68.0437 90.0007 67.3059 87.8494 65.5196C90.3113 67.675 91.843 68.4624 94.9944 69.7958C94.7891 71.2142 94.0592 72.8337 91.9164 72.8064C91.5599 72.8017 90.8036 72.6946 90.091 72.3727C90.0137 72.3352 89.9337 72.2957 89.8511 72.2548C89.8189 72.2374 89.7873 72.2213 89.7566 72.2063C88.2914 71.4439 84.9227 68.9578 83.8329 67.6268C84.5002 67.6858 84.9962 67.9802 85.8605 67.9268C84.5617 66.4264 83.6509 65.6995 82.7589 63.5666L84.4035 63.9863C83.704 62.2732 83.2493 60.8128 83.1443 59.0921C83.6379 59.3023 84.1093 59.7122 85.0899 60.1324C84.2696 57.5433 84.4459 56.2199 85.0986 54.0902C85.9111 54.3951 86.122 54.5461 86.7749 54.8367C86.3605 53.6814 86.0577 51.51 86.7556 50.3888C87.6445 50.9492 88.0666 51.009 88.7924 51.6469C88.7518 50.4134 89.5915 47.3769 90.577 46.6891L90.6022 46.7163C90.608 50.7392 92.1575 54.5536 93.2947 58.5898Z" fill="#4E4138"/>
    <path fill-rule="evenodd" clip-rule="evenodd" d="M58.7716 119.45V116.309L61.8704 119.45H63.9645L60.1724 115.616L63.4693 112.503H61.5166L58.7716 115.135V112.503H57.2435V119.45H58.7716ZM68.1388 118.29C67.4737 118.29 66.936 118.064 66.4973 117.625C66.0587 117.186 65.8465 116.635 65.8465 115.97C65.8465 115.319 66.0587 114.767 66.4973 114.328C66.936 113.89 67.4878 113.663 68.1388 113.663C68.7897 113.663 69.3273 113.89 69.766 114.328C70.2046 114.767 70.4168 115.319 70.4168 115.97C70.4168 116.635 70.2046 117.186 69.766 117.625C69.3273 118.064 68.7897 118.29 68.1388 118.29ZM68.1388 119.634C69.2424 119.634 70.1479 119.281 70.8696 118.573C71.5913 117.851 71.9451 116.988 71.9451 115.97C71.9451 114.951 71.5913 114.088 70.8696 113.38C70.1479 112.673 69.2424 112.319 68.1388 112.319C67.0209 112.319 66.1153 112.673 65.3937 113.38C64.6721 114.088 64.3183 114.951 64.3183 115.97C64.3183 117.002 64.6721 117.866 65.3937 118.573C66.1153 119.281 67.0209 119.634 68.1388 119.634ZM78.5812 122.28V119.564C79.7981 119.521 80.7603 119.182 81.4535 118.517C82.1469 117.851 82.5006 117.002 82.5006 115.97C82.5006 113.918 81.0573 112.517 78.5812 112.39V109.546H77.053V112.39C74.5767 112.517 73.1335 113.918 73.1335 115.97C73.1335 117.002 73.4874 117.851 74.1806 118.517C74.8739 119.182 75.8361 119.521 77.053 119.564V122.28H78.5812ZM77.053 118.276C75.6239 118.276 74.6193 117.342 74.6193 115.97C74.6193 114.597 75.6239 113.692 77.053 113.677V118.276ZM78.5812 113.677C80.0103 113.692 81.0149 114.597 81.0149 115.97C81.0149 117.342 80.0103 118.276 78.5812 118.276V113.677ZM83.6893 115.97C83.6893 117.059 84.0571 117.936 84.7929 118.616C85.5429 119.295 86.4485 119.634 87.5238 119.634C88.5992 119.634 89.4481 119.408 90.0849 118.955V117.668C89.3916 118.078 88.6557 118.29 87.8492 118.29C86.4343 118.29 85.4155 117.597 85.2315 116.422H90.5519V116.026C90.5519 114.767 90.1132 113.621 89.0803 112.885C88.5709 112.503 87.9625 112.319 87.255 112.319C86.1937 112.319 85.3448 112.673 84.6798 113.366C84.0147 114.059 83.6893 114.937 83.6893 115.97ZM85.2458 115.262C85.3448 114.357 86.0663 113.607 87.1842 113.607C87.7502 113.607 88.1888 113.776 88.5143 114.116C88.8398 114.456 88.9955 114.838 89.0095 115.262H85.2458ZM97.3863 119.45L101.136 114.724V119.45H102.664V112.503H101.235L97.4853 117.215V112.503H95.9571V119.45H97.3863ZM114.423 119.45V112.503H112.894V115.588C112.427 115.828 111.904 115.941 111.324 115.941C110.135 115.941 109.711 115.474 109.711 114.13V112.503H108.183V114.258C108.183 116.451 109.145 117.271 111.069 117.271C111.762 117.271 112.371 117.158 112.894 116.946V119.45H114.423ZM123.125 118.262C122.785 118.262 122.545 118.007 122.545 117.568V114.979C122.545 113.281 121.257 112.319 119.333 112.319C118.328 112.319 117.493 112.517 116.8 112.913V114.258C117.465 113.847 118.201 113.635 118.993 113.635C120.351 113.635 121.03 114.144 121.03 115.149V115.531C120.394 115.177 119.644 114.993 118.809 114.993C118.031 114.993 117.366 115.191 116.828 115.602C116.29 115.998 116.021 116.564 116.021 117.3C116.021 118.021 116.262 118.601 116.757 119.012C117.252 119.422 117.875 119.634 118.625 119.634C119.7 119.634 120.549 119.281 121.186 118.559C121.37 119.224 121.865 119.549 122.644 119.549C123.026 119.549 123.323 119.479 123.535 119.323V118.163C123.408 118.233 123.28 118.262 123.125 118.262ZM121.03 117.484C120.592 117.951 119.842 118.318 119.049 118.318C118.158 118.318 117.55 117.951 117.55 117.215C117.55 116.536 118.158 116.139 119.177 116.139C119.828 116.139 120.45 116.309 121.03 116.635V117.484ZM126.478 119.45L130.228 114.724V119.45H131.756V112.503H130.327L126.577 117.215V112.503H125.049V119.45H126.478ZM128.402 111.569C129.817 111.569 130.836 110.663 130.85 109.234H129.549C129.534 109.914 129.068 110.395 128.388 110.395C127.695 110.395 127.242 109.914 127.242 109.234H125.955C125.969 110.663 126.973 111.569 128.402 111.569Z" fill="#4E4138"/>
    </svg>